<svg width="412" height="915" viewBox="0 0 412 915" fill="none" xmlns="http://www.w3.org/2000/svg">
<g clip-path="url(#clip0_89_255)">
<rect width="412" height="915" fill="white"/>
<rect width="411" height="915" fill="#F4F4F4"/>
<path d="M401 314.5V418.01C401 423.23 396.48 425.72 391 429.61C386.6 432.74 381 428.86 381 423.74V322.6C381 320.49 380.26 318.48 377.86 317.25C375.46 316.02 300.48 276.6 300.48 276.6C299.27 276.15 293.99 272.82 286.95 276.44C280.26 279.88 276.62 283.62 275.69 285.38L357.49 330.2C359.66 331.34 361 333.1 361 335.36V443.38C360.975 444.598 360.618 445.787 359.968 446.818C359.318 447.848 358.399 448.682 357.31 449.23C356.274 449.739 355.134 450.003 353.98 450C352.622 450.014 351.287 449.654 350.12 448.96C347.97 447.65 272.38 401.3 267.39 398.29C264.99 396.85 262.18 393.9 262.12 391.71L261 288.85C261 286.87 260.77 283.38 263.89 278.53C270.86 267.69 295.18 255.36 307.49 261.75L397.48 307.3C399.65 308.42 401 310.66 401 314.5Z" fill="#19535F"/>
<path d="M75.65 399.328V476.443C75.65 480.332 72.2826 482.187 68.2 485.085C64.922 487.417 60.75 484.526 60.75 480.712V405.362C60.75 403.79 60.1987 402.293 58.4107 401.377C56.6227 400.46 0.762596 371.092 0.762596 371.092C-0.138853 370.757 -4.07245 368.276 -9.31726 370.973C-14.3013 373.536 -17.0131 376.322 -17.706 377.633L43.235 411.024C44.8517 411.874 45.85 413.185 45.85 414.869V495.343C45.8315 496.251 45.5657 497.137 45.0813 497.905C44.5969 498.673 43.9122 499.294 43.1009 499.702C42.3292 500.081 41.4802 500.278 40.6201 500.275C39.6086 500.286 38.6137 500.018 37.7444 499.501C36.1426 498.525 -20.1719 463.994 -23.8895 461.751C-25.6775 460.679 -27.7709 458.481 -27.8156 456.849L-28.65 380.219C-28.65 378.743 -28.8214 376.143 -26.497 372.53C-21.3043 364.454 -3.1859 355.268 5.98505 360.029L73.0276 393.964C74.6442 394.798 75.65 396.467 75.65 399.328Z" fill="#19535F"/>
<path d="M41.5823 259.2L10.9163 303.242C9.75437 304.91 9.30296 306.972 9.66131 308.974C10.0197 310.975 11.1584 312.752 12.8271 313.914C14.4958 315.076 16.5577 315.528 18.5592 315.169C20.5607 314.811 22.3378 313.672 23.4997 312.004L54.1658 267.961L95.062 296.437C95.8963 297.018 96.4657 297.907 96.6449 298.907C96.8241 299.908 96.5983 300.939 96.0174 301.773L67.5417 342.67C65.218 346.007 61.6637 348.284 57.6607 349.001C53.6577 349.718 49.5339 348.815 46.1966 346.491L8.44624 320.206C5.1089 317.882 2.83136 314.328 2.11465 310.325C1.39794 306.322 2.30077 302.198 4.62453 298.861L33.1002 257.965C33.6811 257.13 34.5697 256.561 35.5705 256.382C36.5712 256.203 37.6021 256.428 38.4365 257.009L41.5823 259.2ZM48.8295 268.917L20.3538 309.813C19.7729 310.647 18.8843 311.217 17.8836 311.396C16.8828 311.575 15.8519 311.349 15.0175 310.768C14.1832 310.188 13.6138 309.299 13.4346 308.298C13.2555 307.297 13.4812 306.267 14.0621 305.432L42.5378 264.536L48.8295 268.917Z" fill="#61391D"/>
<path d="M361.153 61.8611L321.712 25.4664C320.218 24.0875 318.237 23.3586 316.206 23.4402C314.174 23.5218 312.258 24.4072 310.879 25.9015C309.5 27.3958 308.771 29.3767 308.853 31.4084C308.934 33.4401 309.82 35.3561 311.314 36.7351L350.754 73.1297L316.959 109.753C316.27 110.5 315.312 110.943 314.296 110.984C313.28 111.024 312.29 110.66 311.543 109.97L274.919 76.1754C271.931 73.4176 270.16 69.5854 269.997 65.5221C269.834 61.4587 271.291 57.4969 274.049 54.5083L305.245 20.7023C308.002 17.7136 311.835 15.9429 315.898 15.7798C319.961 15.6166 323.923 17.0742 326.912 19.8321L363.535 53.6271C364.282 54.3166 364.725 55.2746 364.766 56.2904C364.806 57.3063 364.442 58.2967 363.752 59.0439L361.153 61.8611ZM350.537 67.7129L313.914 33.9179C313.166 33.2284 312.724 32.2704 312.683 31.2546C312.642 30.2387 313.007 29.2483 313.696 28.5011C314.386 27.754 315.344 27.3113 316.359 27.2705C317.375 27.2297 318.366 27.5941 319.113 28.2836L355.736 62.0786L350.537 67.7129Z" fill="#61391D"/>
<path d="M28.004 149.955L25.2445 147.802C24.5126 147.232 24.0375 146.393 23.9238 145.472C23.81 144.551 24.0669 143.622 24.6379 142.89C25.2089 142.158 26.0472 141.683 26.9685 141.569C27.8897 141.456 28.8184 141.712 29.5503 142.283L59.9049 165.966L62.0579 163.206C62.6289 162.474 62.8857 161.546 62.772 160.624C62.6582 159.703 62.1832 158.865 61.4513 158.294L31.0967 134.612C29.6329 133.47 27.7755 132.956 25.933 133.183C24.0904 133.411 22.4138 134.361 21.2718 135.825L-13.1751 179.977C-15.5433 183.012 -14.9973 187.434 -11.9619 189.802L21.1523 215.637C22.616 216.779 24.4734 217.293 26.3159 217.065C28.1585 216.838 29.8351 215.887 30.9771 214.424L58.9652 178.55C59.5362 177.818 59.7931 176.889 59.6793 175.968C59.5655 175.047 59.0905 174.209 58.3586 173.638L39.042 158.567L21.8186 180.643L20.6054 170.818L10.7806 172.032L28.004 149.955Z" fill="#81B8BC"/>
<rect x="459.477" y="-90" width="400.687" height="383.406" rx="53" transform="rotate(22.1371 459.477 -90)" fill="#81B8BC"/>
</g>
<defs>
<clipPath id="clip0_89_255">
<rect width="412" height="915" fill="white"/>
</clipPath>
</defs>
</svg>
