<svg width="489" height="238" viewBox="0 0 489 238" fill="none" xmlns="http://www.w3.org/2000/svg">
<path d="M304.108 76.4599L252.804 46.6455C249.521 44.7424 245.793 43.7402 241.998 43.7402C238.204 43.7402 234.476 44.7424 231.193 46.6455L179.892 76.4599C179.69 76.5785 179.522 76.7478 179.406 76.9511C179.289 77.1544 179.228 77.3846 179.228 77.6189C179.228 77.8532 179.289 78.0834 179.406 78.2867C179.522 78.49 179.69 78.6593 179.892 78.7779L241.328 114.918C241.535 115.04 241.77 115.104 242.01 115.104C242.25 115.104 242.485 115.04 242.692 114.918L304.115 78.7779C304.317 78.6587 304.484 78.4889 304.599 78.2853C304.715 78.0816 304.776 77.8512 304.775 77.617C304.775 77.3827 304.713 77.1527 304.596 76.9497C304.479 76.7467 304.311 76.5779 304.108 76.4599ZM242 84.0622C237.549 84.0622 233.938 81.6569 233.938 78.6872C233.938 75.7175 237.549 73.3122 242 73.3122C246.451 73.3122 250.062 75.7175 250.062 78.6872C250.062 81.6569 246.451 84.0622 242 84.0622ZM235.953 123.975L174.141 87.9187C173.936 87.8009 173.705 87.7388 173.469 87.7387C173.233 87.7386 173.002 87.8006 172.797 87.9184C172.593 88.0362 172.424 88.2056 172.306 88.4097C172.188 88.6138 172.125 88.8453 172.125 89.0811V147.507C172.13 150.322 172.872 153.087 174.277 155.526C175.682 157.966 177.701 159.995 180.134 161.412L234.609 194.075C234.814 194.193 235.045 194.255 235.281 194.255C235.517 194.255 235.748 194.193 235.953 194.075C236.157 193.958 236.326 193.788 236.444 193.584C236.562 193.38 236.625 193.148 236.625 192.913V125.137C236.625 124.902 236.563 124.67 236.445 124.466C236.327 124.262 236.157 124.093 235.953 123.975ZM188.25 156.625C185.28 156.625 182.875 153.013 182.875 148.562C182.875 144.111 185.28 140.5 188.25 140.5C191.22 140.5 193.625 144.111 193.625 148.562C193.625 153.013 191.22 156.625 188.25 156.625ZM220.5 145.875C217.53 145.875 215.125 142.263 215.125 137.812C215.125 133.361 217.53 129.75 220.5 129.75C223.47 129.75 225.875 133.361 225.875 137.812C225.875 142.263 223.47 145.875 220.5 145.875ZM309.859 87.9288L248.047 124.227C247.843 124.344 247.674 124.513 247.556 124.717C247.438 124.92 247.376 125.151 247.375 125.386V192.906C247.375 193.142 247.438 193.373 247.556 193.577C247.674 193.781 247.843 193.951 248.047 194.069C248.252 194.186 248.483 194.248 248.719 194.248C248.955 194.248 249.186 194.186 249.391 194.068L303.863 161.405C306.295 159.989 308.314 157.961 309.72 155.523C311.125 153.085 311.868 150.322 311.875 147.507V89.1012C311.877 88.8646 311.816 88.6318 311.698 88.4263C311.581 88.2208 311.411 88.0499 311.207 87.931C311.002 87.812 310.77 87.7491 310.533 87.7488C310.297 87.7484 310.064 87.8105 309.859 87.9288ZM263.5 175.437C260.53 175.437 258.125 171.826 258.125 167.375C258.125 162.923 260.53 159.312 263.5 159.312C266.47 159.312 268.875 162.923 268.875 167.375C268.875 171.826 266.47 175.437 263.5 175.437ZM263.5 145.875C260.53 145.875 258.125 142.263 258.125 137.812C258.125 133.361 260.53 129.75 263.5 129.75C266.47 129.75 268.875 133.361 268.875 137.812C268.875 142.263 266.47 145.875 263.5 145.875ZM295.75 156.625C292.78 156.625 290.375 153.013 290.375 148.562C290.375 144.111 292.78 140.5 295.75 140.5C298.72 140.5 301.125 144.111 301.125 148.562C301.125 153.013 298.72 156.625 295.75 156.625ZM295.75 127.062C292.78 127.062 290.375 123.451 290.375 119C290.375 114.549 292.78 110.937 295.75 110.937C298.72 110.937 301.125 114.549 301.125 119C301.125 123.451 298.72 127.062 295.75 127.062Z" fill="#19535F"/>
</svg>
