<svg width="489" height="238" viewBox="0 0 489 238" fill="none" xmlns="http://www.w3.org/2000/svg">
<path d="M197.5 138V119H216.5V138H197.5ZM292.5 66.693C292.485 62.9235 290.977 59.3136 288.306 56.6536C285.635 53.9935 282.02 52.5 278.25 52.5H182.519C178.739 52.5 175.115 54.0013 172.442 56.6737C169.77 59.3461 168.269 62.9707 168.269 66.75V152.25C168.269 158.549 170.771 164.59 175.225 169.044C179.679 173.498 185.72 176 192.019 176H297.982C304.28 176 310.321 173.498 314.775 169.044C319.229 164.59 321.732 158.549 321.732 152.25V95.25C321.732 91.4707 320.23 87.8461 317.558 85.1737C314.885 82.5013 311.261 81 307.482 81H302V149.685C302 150.945 301.5 152.153 300.609 153.044C299.718 153.935 298.51 154.435 297.25 154.435C295.99 154.435 294.782 153.935 293.891 153.044C293 152.153 292.5 150.945 292.5 149.685V66.693ZM188 85.75C188 84.4902 188.501 83.282 189.391 82.3912C190.282 81.5004 191.49 81 192.75 81H268.75C270.01 81 271.218 81.5004 272.109 82.3912C273 83.282 273.5 84.4902 273.5 85.75C273.5 87.0098 273 88.218 272.109 89.1088C271.218 89.9996 270.01 90.5 268.75 90.5H192.75C191.49 90.5 190.282 89.9996 189.391 89.1088C188.501 88.218 188 87.0098 188 85.75ZM240.25 109.5H268.75C270.01 109.5 271.218 110 272.109 110.891C273 111.782 273.5 112.99 273.5 114.25C273.5 115.51 273 116.718 272.109 117.609C271.218 118.5 270.01 119 268.75 119H240.25C238.99 119 237.782 118.5 236.891 117.609C236 116.718 235.5 115.51 235.5 114.25C235.5 112.99 236 111.782 236.891 110.891C237.782 110 238.99 109.5 240.25 109.5ZM235.5 142.75C235.5 141.49 236 140.282 236.891 139.391C237.782 138.5 238.99 138 240.25 138H268.75C270.01 138 271.218 138.5 272.109 139.391C273 140.282 273.5 141.49 273.5 142.75C273.5 144.01 273 145.218 272.109 146.109C271.218 147 270.01 147.5 268.75 147.5H240.25C238.99 147.5 237.782 147 236.891 146.109C236 145.218 235.5 144.01 235.5 142.75ZM192.75 109.5H221.25C222.51 109.5 223.718 110 224.609 110.891C225.5 111.782 226 112.99 226 114.25V142.75C226 144.01 225.5 145.218 224.609 146.109C223.718 147 222.51 147.5 221.25 147.5H192.75C191.49 147.5 190.282 147 189.391 146.109C188.501 145.218 188 144.01 188 142.75V114.25C188 112.99 188.501 111.782 189.391 110.891C190.282 110 191.49 109.5 192.75 109.5Z" fill="#19535F"/>
</svg>
