<svg width="2713" height="3361" viewBox="0 0 2713 3361" fill="none" xmlns="http://www.w3.org/2000/svg">
<g clip-path="url(#clip0_109_268)">
<rect width="2713" height="3361" fill="white"/>
<rect width="2713" height="3361" fill="#F4F4F4"/>
<path d="M2083 388.5V492.01C2083 497.23 2078.48 499.72 2073 503.61C2068.6 506.74 2063 502.86 2063 497.74V396.6C2063 394.49 2062.26 392.48 2059.86 391.25C2057.46 390.02 1982.48 350.6 1982.48 350.6C1981.27 350.15 1975.99 346.82 1968.95 350.44C1962.26 353.88 1958.62 357.62 1957.69 359.38L2039.49 404.2C2041.66 405.34 2043 407.1 2043 409.36V517.38C2042.98 518.598 2042.62 519.787 2041.97 520.818C2041.32 521.848 2040.4 522.682 2039.31 523.23C2038.27 523.739 2037.13 524.003 2035.98 524C2034.62 524.014 2033.29 523.654 2032.12 522.96C2029.97 521.65 1954.38 475.3 1949.39 472.29C1946.99 470.85 1944.18 467.9 1944.12 465.71L1943 362.85C1943 360.87 1942.77 357.38 1945.89 352.53C1952.86 341.69 1977.18 329.36 1989.49 335.75L2079.48 381.3C2081.65 382.42 2083 384.66 2083 388.5Z" fill="#19535F"/>
<path d="M431.45 664.257V838.672C431.45 847.467 423.834 851.663 414.6 858.218C407.186 863.492 397.75 856.954 397.75 848.327V677.906C397.75 674.351 396.503 670.964 392.459 668.891C388.415 666.819 262.074 600.396 262.074 600.396C260.035 599.638 251.138 594.027 239.276 600.126C228.003 605.923 221.87 612.225 220.303 615.19L358.136 690.712C361.792 692.633 364.05 695.598 364.05 699.407V881.42C364.008 883.473 363.407 885.476 362.312 887.213C361.216 888.95 359.668 890.355 357.833 891.277C356.087 892.136 354.167 892.58 352.222 892.575C349.934 892.599 347.684 891.992 345.718 890.823C342.095 888.615 214.726 810.515 206.317 805.444C202.273 803.017 197.539 798.046 197.438 794.356L195.55 621.037C195.55 617.701 195.163 611.82 200.42 603.648C212.164 585.383 253.144 564.607 273.886 575.374L425.519 652.125C429.176 654.013 431.45 657.787 431.45 664.257Z" fill="#19535F"/>
<path d="M284.137 1336.46L119.549 1254.57C111.248 1250.45 110.865 1241.29 109.014 1229.5C107.518 1220.02 118.118 1214.19 126.259 1218.24L287.079 1298.25C290.434 1299.92 294.215 1300.33 298.07 1297.49C301.924 1294.65 423.919 1206.61 423.919 1206.61C425.592 1205.04 435.064 1199.28 434.877 1185.22C434.699 1171.86 431.632 1163.11 429.569 1160.24L293.592 1254.85C290.063 1257.4 286.205 1258.14 282.611 1256.35L110.851 1170.9C108.933 1169.9 107.325 1168.39 106.201 1166.54C105.076 1164.69 104.477 1162.57 104.468 1160.41C104.478 1158.36 104.96 1156.34 105.878 1154.5C106.93 1152.33 108.558 1150.49 110.585 1149.19C114.369 1146.81 247.866 1063.28 256.6 1057.72C260.788 1055.05 267.702 1052.91 271.231 1054.55L435.672 1134.14C438.821 1135.71 444.552 1138.1 449.796 1146.9C461.518 1166.56 461.885 1214.98 441.987 1229.5L298.37 1336.56C294.873 1339.12 290.243 1339.5 284.137 1336.46Z" fill="#19535F"/>
<path d="M1918.16 981.787L1825.48 935.68C1820.81 933.355 1820.59 928.199 1819.55 921.56C1818.71 916.227 1824.67 912.941 1829.26 915.222L1919.81 960.272C1921.7 961.212 1923.83 961.445 1926 959.844C1928.17 958.243 1996.86 908.671 1996.86 908.671C1997.8 907.788 2003.14 904.544 2003.03 896.628C2002.93 889.106 2001.2 884.182 2000.04 882.565L1923.48 935.838C1921.49 937.273 1919.32 937.689 1917.3 936.682L1820.58 888.567C1819.5 888.002 1818.6 887.153 1817.96 886.112C1817.33 885.071 1816.99 883.876 1816.99 882.658C1816.99 881.503 1817.27 880.366 1817.78 879.333C1818.38 878.112 1819.29 877.076 1820.43 876.341C1822.56 874.999 1897.73 827.968 1902.65 824.841C1905.01 823.333 1908.9 822.132 1910.89 823.053L2003.48 867.867C2005.25 868.749 2008.48 870.098 2011.43 875.051C2018.03 886.12 2018.24 913.386 2007.03 921.562L1926.17 981.842C1924.2 983.286 1921.59 983.497 1918.16 981.787Z" fill="#19535F"/>
<path d="M2562 1621.85V1859.92C2562 1871.93 2551.6 1877.66 2539 1886.6C2528.88 1893.8 2516 1884.88 2516 1873.1V1640.48C2516 1635.63 2514.3 1631 2508.78 1628.17C2503.26 1625.35 2330.8 1534.68 2330.8 1534.68C2328.02 1533.64 2315.88 1525.99 2299.68 1534.31C2284.3 1542.22 2275.93 1550.83 2273.79 1554.87L2461.93 1657.96C2466.92 1660.58 2470 1664.63 2470 1669.83V1918.27C2469.94 1921.08 2469.12 1923.81 2467.63 1926.18C2466.13 1928.55 2464.02 1930.47 2461.51 1931.73C2459.13 1932.9 2456.51 1933.51 2453.85 1933.5C2450.73 1933.53 2447.66 1932.7 2444.98 1931.11C2440.03 1928.09 2266.17 1821.49 2254.7 1814.57C2249.18 1811.25 2242.71 1804.47 2242.58 1799.43L2240 1562.85C2240 1558.3 2239.47 1550.27 2246.65 1539.12C2262.68 1514.19 2318.61 1485.83 2346.93 1500.52L2553.9 1605.29C2558.89 1607.87 2562 1613.02 2562 1621.85Z" fill="#19535F"/>
<path d="M617.65 399.328V476.443C617.65 480.332 614.283 482.187 610.2 485.085C606.922 487.417 602.75 484.526 602.75 480.712V405.362C602.75 403.79 602.199 402.293 600.411 401.377C598.623 400.46 542.763 371.092 542.763 371.092C541.862 370.757 537.928 368.276 532.683 370.973C527.699 373.536 524.987 376.322 524.295 377.633L585.236 411.024C586.852 411.874 587.85 413.185 587.85 414.869V495.343C587.832 496.251 587.566 497.137 587.082 497.905C586.597 498.673 585.913 499.294 585.101 499.702C584.33 500.081 583.481 500.278 582.621 500.275C581.609 500.286 580.614 500.018 579.745 499.501C578.143 498.525 521.829 463.994 518.111 461.751C516.323 460.679 514.23 458.481 514.185 456.849L513.35 380.219C513.35 378.743 513.179 376.143 515.504 372.53C520.696 364.454 538.815 355.268 547.986 360.029L615.028 393.964C616.645 394.798 617.65 396.467 617.65 399.328Z" fill="#19535F"/>
<path d="M969.65 1915.33V1992.44C969.65 1996.33 966.283 1998.19 962.2 2001.08C958.922 2003.42 954.75 2000.53 954.75 1996.71V1921.36C954.75 1919.79 954.199 1918.29 952.411 1917.38C950.623 1916.46 894.763 1887.09 894.763 1887.09C893.862 1886.76 889.928 1884.28 884.683 1886.97C879.699 1889.54 876.987 1892.32 876.295 1893.63L937.236 1927.02C938.852 1927.87 939.85 1929.18 939.85 1930.87V2011.34C939.832 2012.25 939.566 2013.14 939.082 2013.9C938.597 2014.67 937.913 2015.29 937.101 2015.7C936.33 2016.08 935.481 2016.28 934.621 2016.27C933.609 2016.29 932.614 2016.02 931.745 2015.5C930.143 2014.52 873.829 1979.99 870.111 1977.75C868.323 1976.68 866.23 1974.48 866.185 1972.85L865.35 1896.22C865.35 1894.74 865.179 1892.14 867.504 1888.53C872.696 1880.45 890.815 1871.27 899.986 1876.03L967.028 1909.96C968.645 1910.8 969.65 1912.47 969.65 1915.33Z" fill="#19535F"/>
<path d="M244.85 3022.4L244.85 2795.19C244.85 2783.74 254.771 2778.27 266.8 2769.73C276.458 2762.86 288.75 2771.38 288.75 2782.62L288.75 3004.62C288.75 3009.25 290.374 3013.66 295.642 3016.36C300.91 3019.06 465.491 3105.59 465.491 3105.59C468.147 3106.58 479.737 3113.89 495.19 3105.94C509.874 3098.39 517.864 3090.18 519.905 3086.32L340.354 2987.94C335.591 2985.43 332.65 2981.57 332.65 2976.61L332.65 2739.51C332.704 2736.83 333.487 2734.22 334.915 2731.96C336.342 2729.7 338.359 2727.87 340.749 2726.67C343.023 2725.55 345.525 2724.97 348.059 2724.97C351.039 2724.94 353.97 2725.73 356.531 2727.26C361.251 2730.13 527.171 2831.87 538.124 2838.48C543.392 2841.64 549.56 2848.11 549.691 2852.92L552.15 3078.7C552.15 3083.05 552.655 3090.71 545.806 3101.35C530.507 3125.15 477.125 3152.21 450.104 3138.18L252.576 3038.2C247.813 3035.74 244.85 3030.83 244.85 3022.4Z" fill="#19535F"/>
<path d="M188.75 78.8909L126.588 168.166C124.233 171.548 123.318 175.728 124.044 179.785C124.771 183.842 127.079 187.445 130.462 189.8C133.844 192.155 138.024 193.07 142.081 192.344C146.138 191.617 149.74 189.309 152.095 185.926L214.257 96.6513L297.155 154.373C298.846 155.55 300.001 157.351 300.364 159.38C300.727 161.409 300.269 163.498 299.092 165.19L241.37 248.088C236.66 254.853 229.455 259.469 221.341 260.922C213.227 262.375 204.868 260.545 198.103 255.835L121.581 202.553C114.816 197.843 110.2 190.638 108.747 182.524C107.294 174.41 109.124 166.051 113.835 159.286L171.556 76.3875C172.734 74.6963 174.535 73.5421 176.563 73.1789C178.592 72.8157 180.682 73.2732 182.373 74.4508L188.75 78.8909ZM203.44 98.588L145.719 181.486C144.541 183.178 142.74 184.332 140.711 184.695C138.683 185.058 136.593 184.601 134.902 183.423C133.21 182.245 132.056 180.444 131.693 178.416C131.33 176.387 131.787 174.297 132.965 172.606L190.686 89.7078L203.44 98.588Z" fill="#61391D"/>
<path d="M1895.58 1910.2L1864.92 1954.24C1863.75 1955.91 1863.3 1957.97 1863.66 1959.97C1864.02 1961.97 1865.16 1963.75 1866.83 1964.91C1868.5 1966.08 1870.56 1966.53 1872.56 1966.17C1874.56 1965.81 1876.34 1964.67 1877.5 1963L1908.17 1918.96L1949.06 1947.44C1949.9 1948.02 1950.47 1948.91 1950.64 1949.91C1950.82 1950.91 1950.6 1951.94 1950.02 1952.77L1921.54 1993.67C1919.22 1997.01 1915.66 1999.28 1911.66 2000C1907.66 2000.72 1903.53 1999.81 1900.2 1997.49L1862.45 1971.21C1859.11 1968.88 1856.83 1965.33 1856.11 1961.32C1855.4 1957.32 1856.3 1953.2 1858.62 1949.86L1887.1 1908.96C1887.68 1908.13 1888.57 1907.56 1889.57 1907.38C1890.57 1907.2 1891.6 1907.43 1892.44 1908.01L1895.58 1910.2ZM1902.83 1919.92L1874.35 1960.81C1873.77 1961.65 1872.88 1962.22 1871.88 1962.4C1870.88 1962.57 1869.85 1962.35 1869.02 1961.77C1868.18 1961.19 1867.61 1960.3 1867.43 1959.3C1867.26 1958.3 1867.48 1957.27 1868.06 1956.43L1896.54 1915.54L1902.83 1919.92Z" fill="#61391D"/>
<path d="M2519.27 706.846L2437.92 631.777C2434.83 628.933 2430.75 627.43 2426.56 627.598C2422.37 627.766 2418.42 629.592 2415.57 632.675C2412.73 635.757 2411.22 639.843 2411.39 644.033C2411.56 648.224 2413.39 652.176 2416.47 655.02L2497.82 730.089L2428.11 805.629C2426.69 807.17 2424.71 808.083 2422.62 808.167C2420.52 808.251 2418.48 807.5 2416.94 806.078L2341.4 736.371C2335.24 730.683 2331.58 722.778 2331.25 714.397C2330.91 706.016 2333.92 697.844 2339.6 691.68L2403.95 621.951C2409.64 615.786 2417.54 612.134 2425.92 611.797C2434.3 611.461 2442.48 614.467 2448.64 620.156L2524.18 689.862C2525.72 691.284 2526.63 693.26 2526.72 695.356C2526.8 697.451 2526.05 699.494 2524.63 701.035L2519.27 706.846ZM2497.37 718.916L2421.83 649.21C2420.29 647.787 2419.38 645.811 2419.29 643.716C2419.21 641.621 2419.96 639.578 2421.38 638.037C2422.8 636.496 2424.78 635.583 2426.88 635.498C2428.97 635.414 2431.01 636.166 2432.55 637.588L2508.09 707.295L2497.37 718.916Z" fill="#61391D"/>
<path d="M1701.15 420.861L1661.71 384.466C1660.22 383.087 1658.24 382.358 1656.21 382.44C1654.17 382.521 1652.26 383.407 1650.88 384.901C1649.5 386.395 1648.77 388.376 1648.85 390.408C1648.93 392.44 1649.82 394.356 1651.31 395.735L1690.75 432.129L1656.96 468.752C1656.27 469.5 1655.31 469.942 1654.3 469.983C1653.28 470.024 1652.29 469.659 1651.54 468.97L1614.92 435.175C1611.93 432.417 1610.16 428.585 1610 424.522C1609.83 420.458 1611.29 416.496 1614.05 413.508L1645.24 379.702C1648 376.713 1651.83 374.942 1655.9 374.779C1659.96 374.616 1663.92 376.074 1666.91 378.832L1703.53 412.627C1704.28 413.316 1704.72 414.274 1704.77 415.29C1704.81 416.306 1704.44 417.296 1703.75 418.043L1701.15 420.861ZM1690.54 426.712L1653.91 392.917C1653.17 392.228 1652.72 391.27 1652.68 390.254C1652.64 389.238 1653.01 388.248 1653.7 387.501C1654.39 386.753 1655.34 386.311 1656.36 386.27C1657.38 386.229 1658.37 386.594 1659.11 387.283L1695.74 421.078L1690.54 426.712Z" fill="#61391D"/>
<path d="M1051.24 1387.31L973.799 1315.85C970.866 1313.15 966.976 1311.71 962.987 1311.87C958.998 1312.04 955.236 1313.77 952.529 1316.71C949.822 1319.64 948.391 1323.53 948.551 1327.52C948.711 1331.51 950.449 1335.27 953.383 1337.98L1030.82 1409.43L964.467 1481.34C963.113 1482.81 961.232 1483.68 959.238 1483.76C957.243 1483.84 955.299 1483.12 953.832 1481.77L881.927 1415.41C876.059 1410 872.582 1402.48 872.262 1394.5C871.941 1386.52 874.803 1378.74 880.218 1372.87L941.467 1306.5C946.881 1300.63 954.405 1297.15 962.383 1296.83C970.361 1296.51 978.14 1299.38 984.008 1304.79L1055.91 1371.14C1057.38 1372.5 1058.25 1374.38 1058.33 1376.37C1058.41 1378.37 1057.69 1380.31 1056.34 1381.78L1051.24 1387.31ZM1030.39 1398.8L958.487 1332.45C957.02 1331.09 956.151 1329.21 956.071 1327.22C955.991 1325.22 956.706 1323.28 958.06 1321.81C959.414 1320.34 961.295 1319.48 963.289 1319.4C965.284 1319.32 967.228 1320.03 968.695 1321.38L1040.6 1387.74L1030.39 1398.8Z" fill="#61391D"/>
<path d="M1041.78 95.2413L1030.81 86.6819C1027.9 84.4117 1026.01 81.0787 1025.56 77.416C1025.1 73.7534 1026.13 70.061 1028.4 67.1513C1030.67 64.2416 1034 62.3529 1037.66 61.9006C1041.32 61.4483 1045.02 62.4696 1047.93 64.7397L1168.61 158.894L1177.17 147.923C1179.44 145.013 1180.46 141.321 1180.01 137.658C1179.55 133.995 1177.67 130.662 1174.76 128.392L1054.07 34.2381C1048.25 29.6978 1040.87 27.6553 1033.54 28.5599C1026.22 29.4644 1019.55 33.2419 1015.01 39.0613L878.062 214.599C868.646 226.667 870.817 244.244 882.885 253.66L1014.54 356.373C1020.36 360.913 1027.74 362.956 1035.07 362.051C1042.39 361.147 1049.06 357.369 1053.6 351.55L1164.87 208.926C1167.14 206.016 1168.16 202.324 1167.71 198.661C1167.26 194.999 1165.37 191.666 1162.46 189.395L1085.66 129.479L1017.19 217.248L1012.36 178.187L973.303 183.01L1041.78 95.2413Z" fill="#81B8BC"/>
<path d="M1712.19 1326.4L1702.92 1319.18C1700.47 1317.26 1698.87 1314.45 1698.49 1311.35C1698.11 1308.26 1698.97 1305.15 1700.89 1302.69C1702.8 1300.23 1705.62 1298.64 1708.71 1298.26C1711.8 1297.87 1714.92 1298.74 1717.38 1300.65L1819.25 1380.14L1826.48 1370.88C1828.4 1368.42 1829.26 1365.3 1828.88 1362.21C1828.5 1359.12 1826.9 1356.3 1824.44 1354.39L1722.57 1274.9C1717.65 1271.07 1711.42 1269.35 1705.23 1270.11C1699.05 1270.87 1693.42 1274.06 1689.59 1278.98L1573.98 1427.16C1566.03 1437.35 1567.86 1452.19 1578.05 1460.14L1689.19 1546.85C1694.1 1550.68 1700.34 1552.41 1706.52 1551.64C1712.7 1550.88 1718.33 1547.69 1722.16 1542.78L1816.1 1422.37C1818.02 1419.92 1818.88 1416.8 1818.5 1413.71C1818.12 1410.62 1816.52 1407.8 1814.06 1405.89L1749.23 1355.31L1691.43 1429.4L1687.35 1396.42L1654.38 1400.5L1712.19 1326.4Z" fill="#81B8BC"/>
<rect x="2057.48" y="-242" width="400.687" height="383.406" rx="53" transform="rotate(22.1371 2057.48 -242)" fill="#81B8BC"/>
<rect x="-43.5234" y="1554" width="400.687" height="383.406" rx="53" transform="rotate(22.1371 -43.5234 1554)" fill="#81B8BC"/>
<rect x="2424.88" y="2333" width="512.742" height="490.628" rx="53" transform="rotate(22.1371 2424.88 2333)" fill="#81B8BC"/>
</g>
<defs>
<clipPath id="clip0_109_268">
<rect width="2713" height="3361" fill="white"/>
</clipPath>
</defs>
</svg>
