<svg width="300" height="300" viewBox="0 0 300 300" fill="none" xmlns="http://www.w3.org/2000/svg">
<path fill-rule="evenodd" clip-rule="evenodd" d="M156.702 37.5171C148.921 43.6501 147.117 52.7011 152.105 60.5851C155.635 66.1651 158.297 67.4891 165.984 67.4891C171.973 67.4891 172.485 67.2931 176.333 63.5361L180.381 59.5831L181.881 56.4011L182.381 52C181.881 46.5 180.108 43.2161 177.615 40.4011C173.776 36.0661 171.295 34.9871 165.197 35.0001C161.047 35.0091 159.184 35.5611 156.702 37.5171ZM191.702 53.5171C183.921 59.6501 182.117 68.7011 187.105 76.5851C190.635 82.1651 193.297 83.4891 200.984 83.4891C206.973 83.4891 207.485 83.2931 211.333 79.5361L212.881 78.5L214.881 75.8041L216.881 71.5V67.489C216.381 60.5851 215.108 59.2161 212.615 56.4011C208.776 52.0661 206.295 50.9871 200.197 51.0001C196.047 51.0091 194.184 51.5611 191.702 53.5171ZM173.706 54.6471C174.881 56.4011 172.482 58.181 171.381 57.5C170.002 56.648 170.225 53.9891 171.714 53.9891C172.448 53.9891 173.344 54.2851 173.706 54.6471ZM142.686 70.6331C141.887 70.9581 141.666 72.6711 142.019 75.8041C142.381 79.0171 142.098 81.0871 141.116 82.3921C139.021 85.1761 137.381 83.4891 137.381 78.5521C137.381 76.1471 136.783 73.7381 136.031 73.1141C133.542 71.0471 119.867 76.9051 111.967 83.4221L109.053 85.8251L112.715 87.3551C116.798 89.0611 119.464 93.3061 117.614 95.1561C116.797 95.9731 115.668 95.5661 113.365 93.6291C109.27 90.1831 105.17 90.1711 102.476 93.5961C100.129 96.5801 95.93 105.289 95.056 108.989C94.476 111.443 94.562 111.483 99.733 111.157C105.336 110.805 108.174 112.48 107.03 115.462C106.588 116.614 105.441 116.822 102.068 116.36C99.392 115.993 96.794 116.233 95.407 116.975C93.213 118.149 93.148 118.57 93.573 128.889C93.816 134.772 94.355 140.138 94.772 140.813C95.326 141.709 96.3589 141.344 98.5959 139.462C102.295 136.349 106.881 136.364 106.881 139.489C106.881 140.78 106.111 141.599 104.708 141.798C102.619 142.096 97.381 146.508 97.381 147.97C97.381 148.36 99.177 151.457 101.371 154.853L105.362 161.026L109.443 158.45C112.104 156.77 114.604 155.98 116.626 156.181C120.689 156.585 121.292 158.705 117.712 160.003C112.78 161.792 110.381 163.288 110.381 164.575C110.381 165.852 121.808 173.989 123.601 173.989C124.147 173.989 125.452 172.897 126.503 171.561C128.722 168.74 135.085 166.293 136.506 167.714C137.981 169.189 136.604 171.351 133.149 172.989C128.248 175.312 128.62 176.762 134.821 179.505C141.16 182.308 142.951 182.552 143.658 180.709C144.411 178.748 150.913 175.595 152.75 176.301C155.304 177.28 154.684 178.877 150.881 181.122C148.956 182.257 147.381 183.553 147.381 184C147.381 184.448 150.508 186.009 154.33 187.469L161.278 190.125L164.301 187.89C167.502 185.523 172.725 184.933 174.527 186.735C176.039 188.247 174.693 189.989 172.013 189.989C170.776 189.989 168.89 190.628 167.822 191.408C165.911 192.806 165.915 192.864 168.057 195.158C169.254 196.44 170.53 198.688 170.894 200.154C171.308 201.821 172.663 203.277 174.515 204.045C177.425 205.25 180.381 209.45 180.381 212.38C180.381 215.447 178.101 215.105 175.216 211.605C171.703 207.343 170.197 207.095 168.385 210.482C167.651 211.854 166.052 213.63 164.832 214.429C162.952 215.661 162.689 216.541 163.103 220.216C163.729 225.764 161.211 232.303 158.65 231.785C156.833 231.417 156.813 231.11 158.052 222.591C158.595 218.864 158.516 218.724 156.25 219.397C154.947 219.784 151.181 220.357 147.881 220.669C142.07 221.22 141.822 221.362 140.014 225.185C137.83 229.805 132.198 233.206 130.14 231.148C129.179 230.187 129.713 229.2 132.65 226.509C138.216 221.41 137.736 219.22 129.964 214.265L123.547 210.174L122.334 213.102C120.594 217.303 115.658 221.159 112.491 220.792C108.906 220.376 109.221 218.571 113.368 215.777C116.799 213.465 119.431 208.706 118.046 207.321C117.657 206.932 114.599 206.415 111.25 206.173C105.661 205.769 104.492 206.072 97.021 209.866C92.544 212.139 87.558 215.058 85.941 216.352L83 218.704L84.7479 223.28C85.7089 225.797 88.2939 230.639 90.4919 234.039C99.3049 247.674 110.969 256.987 125.623 262.088C133.019 264.662 135.2 264.964 146.526 264.976C156.552 264.986 160.59 264.554 166.026 262.89C178.047 259.21 186.153 254.336 194.881 245.54C207.513 232.81 212.381 220.835 212.381 202.489C212.381 185.65 207.952 173.959 197.239 162.516C189.118 153.843 178.262 147.699 159.899 141.386C151.397 138.463 143.189 135.424 141.659 134.633C132.484 129.888 132.714 120.323 142.099 116.351C147.364 114.123 153.472 114.688 161.526 118.15C170.054 121.815 178.414 122.355 184.745 119.648C188.359 118.103 204.381 104.595 204.381 103.094C204.381 101.616 190.859 87.7051 185.161 83.3201C177.734 77.6051 167.618 72.5751 160.582 71.1001C155.279 69.9881 144.935 69.7181 142.686 70.6331ZM208.381 75.8041C207.897 76.5871 206.548 76.4711 205.881 75.8041C205.331 75.2541 204.982 73.6351 205.381 72.9891C205.865 72.2061 207.714 72.3221 208.381 72.9891C208.931 73.5391 208.78 75.1581 208.381 75.8041Z" fill="#19535F"/>
</svg>
