<svg width="1629" height="824" viewBox="0 0 1629 824" fill="none" xmlns="http://www.w3.org/2000/svg">
<g clip-path="url(#clip0_96_258)">
<rect width="1629" height="824" fill="white"/>
<rect width="1629" height="824" fill="#F4F4F4"/>
<rect x="1628.74" y="3" width="395" height="408" rx="53" transform="rotate(22.1371 1628.74 3)" fill="#81B8BC"/>
<path d="M103 403.5V507.01C103 512.23 98.4799 514.72 92.9999 518.61C88.5999 521.74 82.9999 517.86 82.9999 512.74V411.6C82.9999 409.49 82.2599 407.48 79.8599 406.25C77.4599 405.02 2.47989 365.6 2.47989 365.6C1.26989 365.15 -4.01011 361.82 -11.0501 365.44C-17.7401 368.88 -21.3801 372.62 -22.3101 374.38L59.4899 419.2C61.6599 420.34 62.9999 422.1 62.9999 424.36V532.38C62.9751 533.598 62.6183 534.787 61.9681 535.818C61.3179 536.848 60.3988 537.682 59.3099 538.23C58.2739 538.739 57.1344 539.003 55.9799 539C54.6222 539.014 53.2868 538.654 52.1199 537.96C49.9699 536.65 -25.6201 490.3 -30.6101 487.29C-33.0101 485.85 -35.8201 482.9 -35.8801 480.71L-37.0001 377.85C-37.0001 375.87 -37.2301 372.38 -34.1101 367.53C-27.1401 356.69 -2.82011 344.36 9.48989 350.75L99.4799 396.3C101.65 397.42 103 399.66 103 403.5Z" fill="#19535F"/>
<path d="M1665 407.5V511.01C1665 516.23 1660.48 518.72 1655 522.61C1650.6 525.74 1645 521.86 1645 516.74V415.6C1645 413.49 1644.26 411.48 1641.86 410.25C1639.46 409.02 1564.48 369.6 1564.48 369.6C1563.27 369.15 1557.99 365.82 1550.95 369.44C1544.26 372.88 1540.62 376.62 1539.69 378.38L1621.49 423.2C1623.66 424.34 1625 426.1 1625 428.36V536.38C1624.98 537.598 1624.62 538.787 1623.97 539.818C1623.32 540.848 1622.4 541.682 1621.31 542.23C1620.27 542.739 1619.13 543.003 1617.98 543C1616.62 543.014 1615.29 542.654 1614.12 541.96C1611.97 540.65 1536.38 494.3 1531.39 491.29C1528.99 489.85 1526.18 486.9 1526.12 484.71L1525 381.85C1525 379.87 1524.77 376.38 1527.89 371.53C1534.86 360.69 1559.18 348.36 1571.49 354.75L1661.48 400.3C1663.65 401.42 1665 403.66 1665 407.5Z" fill="#19535F"/>
<path d="M91.5828 56.1997L60.9167 100.242C59.7549 101.91 59.3034 103.972 59.6618 105.974C60.0202 107.975 61.1589 109.752 62.8276 110.914C64.4963 112.076 66.5581 112.528 68.5596 112.169C70.5611 111.811 72.3383 110.672 73.5002 109.004L104.166 64.9614L145.062 93.4371C145.897 94.018 146.466 94.9066 146.645 95.9074C146.825 96.9081 146.599 97.9391 146.018 98.7734L117.542 139.67C115.218 143.007 111.664 145.284 107.661 146.001C103.658 146.718 99.5344 145.815 96.1971 143.491L58.4467 117.206C55.1094 114.882 52.8318 111.328 52.1151 107.325C51.3984 103.322 52.3013 99.1982 54.625 95.8609L83.1007 54.9647C83.6816 54.1304 84.5702 53.561 85.5709 53.3818C86.5717 53.2026 87.6026 53.4283 88.437 54.0093L91.5828 56.1997ZM98.83 65.9169L70.3543 106.813C69.7734 107.647 68.8848 108.217 67.8841 108.396C66.8833 108.575 65.8524 108.349 65.018 107.768C64.1837 107.188 63.6143 106.299 63.4351 105.298C63.256 104.297 63.4817 103.267 64.0626 102.432L92.5383 61.536L98.83 65.9169Z" fill="#61391D"/>
<path d="M1314.15 55.8611L1274.71 19.4664C1273.22 18.0875 1271.24 17.3586 1269.21 17.4402C1267.17 17.5218 1265.26 18.4072 1263.88 19.9015C1262.5 21.3958 1261.77 23.3767 1261.85 25.4084C1261.93 27.4401 1262.82 29.3561 1264.31 30.7351L1303.75 67.1297L1269.96 103.753C1269.27 104.5 1268.31 104.943 1267.3 104.984C1266.28 105.024 1265.29 104.66 1264.54 103.97L1227.92 70.1754C1224.93 67.4176 1223.16 63.5854 1223 59.5221C1222.83 55.4587 1224.29 51.4969 1227.05 48.5083L1258.24 14.7023C1261 11.7136 1264.83 9.94295 1268.9 9.77975C1272.96 9.61656 1276.92 11.0742 1279.91 13.8321L1316.53 47.6271C1317.28 48.3166 1317.72 49.2746 1317.77 50.2904C1317.81 51.3063 1317.44 52.2967 1316.75 53.0439L1314.15 55.8611ZM1303.54 61.7129L1266.91 27.9179C1266.17 27.2284 1265.72 26.2704 1265.68 25.2546C1265.64 24.2387 1266.01 23.2483 1266.7 22.5011C1267.39 21.754 1268.34 21.3113 1269.36 21.2705C1270.38 21.2297 1271.37 21.5941 1272.11 22.2836L1308.74 56.0786L1303.54 61.7129Z" fill="#61391D"/>
<path d="M1327 467.955L1324.24 465.802C1323.51 465.232 1323.04 464.393 1322.92 463.472C1322.81 462.551 1323.07 461.622 1323.64 460.89C1324.21 460.158 1325.05 459.683 1325.97 459.569C1326.89 459.456 1327.82 459.712 1328.55 460.283L1358.9 483.966L1361.06 481.206C1361.63 480.474 1361.89 479.546 1361.77 478.624C1361.66 477.703 1361.18 476.865 1360.45 476.294L1330.1 452.612C1328.63 451.47 1326.78 450.956 1324.93 451.183C1323.09 451.411 1321.41 452.361 1320.27 453.825L1285.82 497.977C1283.46 501.012 1284 505.434 1287.04 507.802L1320.15 533.637C1321.62 534.779 1323.47 535.293 1325.32 535.065C1327.16 534.838 1328.84 533.887 1329.98 532.424L1357.97 496.55C1358.54 495.818 1358.79 494.889 1358.68 493.968C1358.57 493.047 1358.09 492.209 1357.36 491.638L1338.04 476.567L1320.82 498.643L1319.61 488.818L1309.78 490.032L1327 467.955Z" fill="#81B8BC"/>
<path d="M250.689 267.246L249.179 270.403C248.779 271.241 248.062 271.885 247.187 272.194C246.312 272.503 245.349 272.452 244.512 272.051C243.675 271.651 243.03 270.934 242.721 270.059C242.412 269.183 242.464 268.221 242.864 267.384L259.472 232.65L256.315 231.14C255.477 230.74 254.515 230.689 253.64 230.998C252.764 231.307 252.048 231.951 251.647 232.788L235.039 267.522C234.238 269.197 234.136 271.121 234.754 272.872C235.372 274.622 236.66 276.056 238.335 276.857L288.856 301.014C292.33 302.675 296.53 301.192 298.191 297.718L316.309 259.827C317.11 258.152 317.213 256.228 316.595 254.477C315.977 252.727 314.688 251.293 313.014 250.492L271.965 230.865C271.127 230.464 270.165 230.413 269.29 230.722C268.415 231.031 267.698 231.675 267.297 232.512L256.729 254.615L281.989 266.694L272.654 269.99L275.95 279.325L250.689 267.246Z" fill="#81B8BC"/>
</g>
<defs>
<clipPath id="clip0_96_258">
<rect width="1629" height="824" fill="white"/>
</clipPath>
</defs>
</svg>
