<svg width="274" height="274" viewBox="0 0 274 274" fill="none" xmlns="http://www.w3.org/2000/svg">
<g clip-path="url(#clip0_106_271)">
<circle cx="137" cy="137" r="137" fill="#81B8BC"/>
<path fill-rule="evenodd" clip-rule="evenodd" d="M118.465 19.4408C111.025 25.3877 109.301 34.1642 114.069 41.809C117.444 47.2197 119.989 48.5036 127.339 48.5036C133.065 48.5036 133.554 48.3135 137.233 44.6705L141.103 40.8374L142.537 37.7519L143.015 33.4843C142.537 28.1511 140.842 24.9669 138.459 22.2373C134.788 18.0338 132.416 16.9875 126.586 17.0001C122.619 17.0088 120.837 17.5441 118.465 19.4408ZM151.927 34.9554C144.488 40.9024 142.763 49.6788 147.532 57.3236C150.907 62.7344 153.452 64.0182 160.801 64.0182C166.527 64.0182 167.017 63.8282 170.696 60.1851L172.176 59.1804L174.088 56.5663L176 52.3928V48.5035C175.522 41.809 174.305 40.4815 171.921 37.7519C168.251 33.5484 165.879 32.5021 160.049 32.5148C156.081 32.5235 154.3 33.0587 151.927 34.9554ZM134.721 36.0511C135.845 37.7519 133.551 39.4778 132.499 38.8175C131.18 37.9913 131.393 35.4131 132.817 35.4131C133.519 35.4131 134.375 35.7001 134.721 36.0511ZM105.064 51.5522C104.3 51.8673 104.089 53.5284 104.426 56.5663C104.772 59.6819 104.502 61.6891 103.563 62.9545C101.56 65.654 99.9922 64.0182 99.9922 59.231C99.9922 56.8989 99.4205 54.563 98.7015 53.9579C96.3218 51.9536 83.2476 57.6339 75.6946 63.9532L72.9086 66.2833L76.4097 67.7669C80.3133 69.4212 82.8623 73.5374 81.0935 75.3313C80.3124 76.1235 79.233 75.7289 77.0311 73.8506C73.116 70.5091 69.1961 70.4975 66.6204 73.8186C64.3765 76.7121 60.3621 85.1569 59.5264 88.7447C58.9719 91.1242 59.0541 91.163 63.998 90.8469C69.3549 90.5056 72.0682 92.1298 70.9745 95.0213C70.5519 96.1384 69.4552 96.3401 66.2304 95.8921C63.6719 95.5362 61.1881 95.7689 59.862 96.4884C57.7644 97.6268 57.7022 98.035 58.1086 108.041C58.3409 113.746 58.8562 118.949 59.2549 119.603C59.7845 120.472 60.7721 120.118 62.9109 118.293C66.4474 115.275 70.832 115.289 70.832 118.319C70.832 119.571 70.0958 120.365 68.7544 120.558C66.7572 120.847 61.7493 125.126 61.7493 126.543C61.7493 126.921 63.4664 129.924 65.564 133.217L69.3796 139.203L73.2814 136.705C75.8255 135.076 78.2157 134.31 80.1489 134.505C84.0334 134.897 84.61 136.953 81.1872 138.211C76.4719 139.946 74.1782 141.397 74.1782 142.644C74.1782 143.883 85.1032 151.773 86.8175 151.773C87.3395 151.773 88.5871 150.714 89.592 149.419C91.7135 146.683 97.797 144.31 99.1556 145.688C100.566 147.119 99.2493 149.215 95.946 150.803C91.2603 153.056 91.616 154.462 97.5446 157.122C103.605 159.84 105.317 160.076 105.993 158.289C106.713 156.388 112.93 153.33 114.686 154.015C117.128 154.964 116.535 156.513 112.899 158.69C111.059 159.79 109.553 161.047 109.553 161.48C109.553 161.915 112.543 163.428 116.197 164.844L122.839 167.419L125.73 165.252C128.79 162.957 133.784 162.385 135.506 164.132C136.952 165.598 135.665 167.288 133.103 167.288C131.92 167.288 130.117 167.907 129.096 168.664C127.269 170.019 127.273 170.075 129.321 172.3C130.465 173.543 131.685 175.723 132.033 177.144C132.429 178.761 133.724 180.172 135.495 180.917C138.277 182.086 141.103 186.158 141.103 188.999C141.103 191.973 138.923 191.642 136.165 188.248C132.806 184.115 131.367 183.875 129.634 187.159C128.933 188.489 127.404 190.211 126.237 190.986C124.44 192.181 124.189 193.034 124.584 196.598C125.183 201.977 122.775 208.318 120.327 207.816C118.59 207.459 118.571 207.161 119.755 198.901C120.274 195.287 120.199 195.151 118.032 195.803C116.787 196.179 113.186 196.734 110.031 197.037C104.475 197.571 104.238 197.709 102.51 201.416C100.422 205.896 95.0369 209.194 93.0693 207.198C92.1505 206.266 92.6611 205.309 95.4691 202.7C100.791 197.755 100.332 195.632 92.901 190.827L86.7659 186.86L85.6062 189.699C83.9426 193.773 79.2234 197.512 76.1955 197.156C72.768 196.753 73.0692 195.003 77.0341 192.293C80.3144 190.051 82.8307 185.437 81.5066 184.094C81.1346 183.717 78.211 183.215 75.0091 182.981C69.6656 182.589 68.5479 182.883 61.4051 186.562C57.1248 188.766 52.3578 191.596 50.8118 192.851L48 195.131L49.6711 199.569C50.5899 202.009 53.0614 206.704 55.1628 210.001C63.5887 223.223 74.7403 232.253 88.7506 237.199C95.8217 239.695 97.907 239.988 108.735 240C118.321 240.01 122.182 239.591 127.379 237.977C138.872 234.409 146.622 229.683 154.966 221.153C167.044 208.81 171.698 197.198 171.698 179.408C171.698 163.08 167.463 151.744 157.221 140.648C149.457 132.238 139.077 126.28 121.521 120.159C113.392 117.325 105.545 114.378 104.082 113.611C95.3103 109.01 95.5302 99.7349 104.503 95.8833C109.537 93.7229 115.376 94.2708 123.077 97.6278C131.23 101.182 139.223 101.705 145.276 99.0803C148.731 97.5822 164.049 84.484 164.049 83.0285C164.049 81.5953 151.121 68.1063 145.673 63.8543C138.573 58.3127 128.901 53.4353 122.174 52.005C117.104 50.9268 107.214 50.6649 105.064 51.5522ZM167.873 56.5663C167.411 57.3256 166.121 57.2131 165.483 56.5663C164.957 56.033 164.624 54.4631 165.005 53.8367C165.468 53.0775 167.236 53.19 167.873 53.8367C168.399 54.37 168.255 55.9399 167.873 56.5663Z" fill="#222222"/>
<path d="M208.218 116.479C210.137 110.865 217.895 110.695 220.169 115.969L220.362 116.483L222.951 124.054C223.544 125.791 224.503 127.38 225.763 128.714C227.022 130.048 228.554 131.097 230.253 131.789L230.949 132.049L238.521 134.635C244.136 136.554 244.306 144.312 239.034 146.586L238.521 146.779L230.949 149.368C229.212 149.961 227.623 150.92 226.288 152.179C224.953 153.439 223.903 154.97 223.211 156.67L222.951 157.363L220.365 164.938C218.446 170.553 210.689 170.723 208.417 165.451L208.218 164.938L205.632 157.366C205.039 155.629 204.081 154.04 202.821 152.705C201.561 151.37 200.03 150.32 198.33 149.628L197.637 149.368L190.066 146.782C184.448 144.863 184.278 137.106 189.552 134.834L190.066 134.635L197.637 132.049C199.374 131.456 200.963 130.497 202.297 129.237C203.631 127.978 204.68 126.447 205.372 124.747L205.632 124.054L208.218 116.479ZM239.958 105.417C240.559 105.417 241.147 105.585 241.656 105.903C242.165 106.221 242.575 106.675 242.839 107.214L242.993 107.589L244.116 110.881L247.411 112.004C248.013 112.208 248.54 112.586 248.926 113.091C249.313 113.595 249.54 114.203 249.581 114.837C249.622 115.471 249.473 116.102 249.154 116.652C248.835 117.201 248.36 117.644 247.79 117.923L247.411 118.077L244.12 119.2L242.997 122.495C242.792 123.096 242.413 123.623 241.909 124.009C241.404 124.395 240.796 124.623 240.162 124.663C239.529 124.703 238.897 124.554 238.348 124.235C237.798 123.916 237.356 123.441 237.077 122.87L236.923 122.495L235.8 119.203L232.505 118.08C231.904 117.876 231.377 117.498 230.99 116.993C230.604 116.489 230.376 115.881 230.336 115.247C230.295 114.613 230.444 113.982 230.763 113.432C231.081 112.883 231.556 112.44 232.127 112.161L232.505 112.007L235.797 110.884L236.92 107.589C237.136 106.955 237.546 106.405 238.091 106.015C238.635 105.626 239.289 105.417 239.958 105.417Z" fill="#222222"/>
</g>
<defs>
<clipPath id="clip0_106_271">
<rect width="274" height="274" fill="white"/>
</clipPath>
</defs>
</svg>
