<svg width="489" height="238" viewBox="0 0 489 238" fill="none" xmlns="http://www.w3.org/2000/svg">
<path d="M172.376 40.8692L208.842 27.0059C250.289 61.4781 299.867 84.1232 333.007 130.678C305.438 160.633 325.781 160.805 324.569 174.377C315.073 227.226 268.379 219.701 230.541 221.993C210.688 211.98 193.365 199.312 176.595 202.403L153.993 181.609L172.376 40.8692Z" fill="#81B8BC"/>
<path d="M270 175.584C268.121 175.584 266.32 174.837 264.991 173.509C263.663 172.181 262.917 170.379 262.917 168.5C262.917 166.622 263.663 164.82 264.991 163.492C266.32 162.163 268.121 161.417 270 161.417C271.878 161.417 273.68 162.163 275.009 163.492C276.337 164.82 277.083 166.622 277.083 168.5C277.083 169.431 276.9 170.352 276.544 171.211C276.188 172.07 275.666 172.851 275.009 173.509C274.351 174.167 273.57 174.689 272.711 175.044C271.851 175.4 270.93 175.584 270 175.584ZM270 148.667C264.74 148.667 259.695 150.757 255.976 154.476C252.256 158.196 250.167 163.24 250.167 168.5C250.167 183.375 270 205.334 270 205.334C270 205.334 289.833 183.375 289.833 168.5C289.833 163.24 287.744 158.196 284.024 154.476C280.305 150.757 275.26 148.667 270 148.667Z" fill="#19535F"/>
<path d="M179 117.584C177.121 117.584 175.32 116.837 173.991 115.509C172.663 114.181 171.917 112.379 171.917 110.5C171.917 108.622 172.663 106.82 173.991 105.492C175.32 104.163 177.121 103.417 179 103.417C180.878 103.417 182.68 104.163 184.009 105.492C185.337 106.82 186.083 108.622 186.083 110.5C186.083 111.431 185.9 112.352 185.544 113.211C185.188 114.07 184.666 114.851 184.009 115.509C183.351 116.167 182.57 116.689 181.711 117.044C180.851 117.4 179.93 117.584 179 117.584ZM179 90.667C173.74 90.667 168.695 92.7566 164.976 96.476C161.256 100.196 159.167 105.24 159.167 110.5C159.167 125.375 179 147.334 179 147.334C179 147.334 198.833 125.375 198.833 110.5C198.833 105.24 196.744 100.196 193.024 96.476C189.305 92.7566 184.26 90.667 179 90.667Z" fill="#19535F"/>
<path d="M213 49.5837C211.121 49.5837 209.32 48.8374 207.991 47.509C206.663 46.1806 205.917 44.3789 205.917 42.5003C205.917 40.6217 206.663 38.82 207.991 37.4917C209.32 36.1633 211.121 35.417 213 35.417C214.878 35.417 216.68 36.1633 218.009 37.4917C219.337 38.82 220.083 40.6217 220.083 42.5003C220.083 43.4305 219.9 44.3516 219.544 45.211C219.188 46.0704 218.666 46.8513 218.009 47.509C217.351 48.1667 216.57 48.6885 215.711 49.0445C214.851 49.4004 213.93 49.5837 213 49.5837ZM213 22.667C207.74 22.667 202.695 24.7566 198.976 28.476C195.256 32.1955 193.167 37.2402 193.167 42.5003C193.167 57.3753 213 79.3337 213 79.3337C213 79.3337 232.833 57.3753 232.833 42.5003C232.833 37.2402 230.744 32.1955 227.024 28.476C223.305 24.7566 218.26 22.667 213 22.667Z" fill="#19535F"/>
<path d="M220 183.584C218.121 183.584 216.32 182.837 214.991 181.509C213.663 180.181 212.917 178.379 212.917 176.5C212.917 174.622 213.663 172.82 214.991 171.492C216.32 170.163 218.121 169.417 220 169.417C221.878 169.417 223.68 170.163 225.009 171.492C226.337 172.82 227.083 174.622 227.083 176.5C227.083 177.431 226.9 178.352 226.544 179.211C226.188 180.07 225.666 180.851 225.009 181.509C224.351 182.167 223.57 182.689 222.711 183.044C221.851 183.4 220.93 183.584 220 183.584ZM220 156.667C214.74 156.667 209.695 158.757 205.976 162.476C202.256 166.196 200.167 171.24 200.167 176.5C200.167 191.375 220 213.334 220 213.334C220 213.334 239.833 191.375 239.833 176.5C239.833 171.24 237.744 166.196 234.024 162.476C230.305 158.757 225.26 156.667 220 156.667Z" fill="#19535F"/>
<path d="M254 109.584C252.121 109.584 250.32 108.837 248.991 107.509C247.663 106.181 246.917 104.379 246.917 102.5C246.917 100.622 247.663 98.82 248.991 97.4917C250.32 96.1633 252.121 95.417 254 95.417C255.878 95.417 257.68 96.1633 259.009 97.4917C260.337 98.82 261.083 100.622 261.083 102.5C261.083 103.431 260.9 104.352 260.544 105.211C260.188 106.07 259.666 106.851 259.009 107.509C258.351 108.167 257.57 108.689 256.711 109.044C255.851 109.4 254.93 109.584 254 109.584ZM254 82.667C248.74 82.667 243.695 84.7566 239.976 88.476C236.256 92.1955 234.167 97.2402 234.167 102.5C234.167 117.375 254 139.334 254 139.334C254 139.334 273.833 117.375 273.833 102.5C273.833 97.2402 271.744 92.1955 268.024 88.476C264.305 84.7566 259.26 82.667 254 82.667Z" fill="#19535F"/>
<path d="M310 109.584C308.121 109.584 306.32 108.837 304.991 107.509C303.663 106.181 302.917 104.379 302.917 102.5C302.917 100.622 303.663 98.82 304.991 97.4917C306.32 96.1633 308.121 95.417 310 95.417C311.878 95.417 313.68 96.1633 315.009 97.4917C316.337 98.82 317.083 100.622 317.083 102.5C317.083 103.431 316.9 104.352 316.544 105.211C316.188 106.07 315.666 106.851 315.009 107.509C314.351 108.167 313.57 108.689 312.711 109.044C311.851 109.4 310.93 109.584 310 109.584ZM310 82.667C304.74 82.667 299.695 84.7566 295.976 88.476C292.256 92.1955 290.167 97.2402 290.167 102.5C290.167 117.375 310 139.334 310 139.334C310 139.334 329.833 117.375 329.833 102.5C329.833 97.2402 327.744 92.1955 324.024 88.476C320.305 84.7566 315.26 82.667 310 82.667Z" fill="#19535F"/>
</svg>
