<svg width="1698" height="271" viewBox="0 0 1698 271" fill="none" xmlns="http://www.w3.org/2000/svg">
<path fill-rule="evenodd" clip-rule="evenodd" d="M1616.32 22.5171C1608.54 28.6501 1606.74 37.7011 1611.72 45.5851C1615.25 51.1651 1617.92 52.4891 1625.6 52.4891C1631.59 52.4891 1632.1 52.2931 1635.95 48.5361L1640 44.5831L1641.5 41.4011L1642 37C1641.5 31.5 1639.73 28.2161 1637.23 25.4011C1633.4 21.0661 1630.91 19.9871 1624.82 20.0001C1620.67 20.0091 1618.8 20.5611 1616.32 22.5171ZM1651.32 38.5171C1643.54 44.6501 1641.74 53.7011 1646.72 61.5851C1650.25 67.1651 1652.92 68.4891 1660.6 68.4891C1666.59 68.4891 1667.1 68.2931 1670.95 64.5361L1672.5 63.5L1674.5 60.8041L1676.5 56.5V52.489C1676 45.5851 1674.73 44.2161 1672.23 41.4011C1668.4 37.0661 1665.91 35.9871 1659.82 36.0001C1655.67 36.0091 1653.8 36.5611 1651.32 38.5171ZM1633.32 39.6471C1634.5 41.4011 1632.1 43.181 1631 42.5C1629.62 41.648 1629.84 38.9891 1631.33 38.9891C1632.07 38.9891 1632.96 39.2851 1633.32 39.6471ZM249.047 56.0591C222.22 60.8411 197.54 79.1081 184.055 104.165C175.261 120.506 171.334 138.448 172.291 157.906C173.614 184.796 183.365 206.864 201.932 224.989C214.233 236.998 228.003 244.656 244.129 248.458C253.986 250.781 275.632 250.506 285.562 247.93C317.387 239.676 342.116 214.241 352.216 179.373C354.249 172.355 354.494 169.401 354.449 152.489C354.4 134.723 354.219 132.904 351.66 124.489C345.563 104.438 333.831 86.4581 319.269 74.8501C310.622 67.9571 295.095 60.1101 285 57.5321C277.217 55.5451 256.659 54.7021 249.047 56.0591ZM438.5 56.4051C403.501 63.2611 375.339 90.1141 366.048 125.489C353.671 172.614 374.47 221.42 415.5 241.532C428.873 248.087 437.531 249.989 454 249.989C470.907 249.989 479.393 248.064 493.5 241.028C518.465 228.577 534.993 207.345 543.207 177.176C546.312 165.768 546.308 141.05 543.198 128.614C534.447 93.6251 509.752 67.3331 476.826 57.9511C467.327 55.2441 448.336 54.4781 438.5 56.4051ZM1037.5 56.4241C998.988 64.0761 969.525 95.6401 962.971 136.267C961.188 147.32 962.155 168.278 964.943 178.989C969.059 194.802 977.281 209.867 988.137 221.482C1000.49 234.695 1015.3 243.745 1031.44 247.93C1041.61 250.568 1062.57 250.794 1073.18 248.38C1109.54 240.109 1137.66 208.513 1144.03 168.762C1145.79 157.796 1144.84 137.726 1142.06 126.989C1135.05 99.9271 1116.61 76.5041 1092.79 64.4101C1076.97 56.3781 1054.25 53.0961 1037.5 56.4241ZM1602.31 55.6331C1601.51 55.9581 1601.28 57.6711 1601.64 60.8041C1602 64.0171 1601.72 66.0871 1600.73 67.3921C1598.64 70.1761 1597 68.4891 1597 63.5521C1597 61.1471 1596.4 58.7381 1595.65 58.1141C1593.16 56.0471 1579.49 61.9051 1571.59 68.4221L1568.67 70.8251L1572.33 72.3551C1576.42 74.0611 1579.08 78.3061 1577.23 80.1561C1576.42 80.9731 1575.29 80.5661 1572.98 78.6291C1568.89 75.1831 1564.79 75.1711 1562.09 78.5961C1559.75 81.5801 1555.55 90.2891 1554.68 93.9891C1554.1 96.4431 1554.18 96.4831 1559.35 96.1571C1564.96 95.8051 1567.79 97.4801 1566.65 100.462C1566.21 101.614 1565.06 101.822 1561.69 101.36C1559.01 100.993 1556.41 101.233 1555.03 101.975C1552.83 103.149 1552.77 103.57 1553.19 113.889C1553.44 119.772 1553.97 125.138 1554.39 125.813C1554.94 126.709 1555.98 126.344 1558.21 124.462C1561.91 121.349 1566.5 121.364 1566.5 124.489C1566.5 125.78 1565.73 126.599 1564.33 126.798C1562.24 127.096 1557 131.508 1557 132.97C1557 133.36 1558.8 136.457 1560.99 139.853L1564.98 146.026L1569.06 143.45C1571.72 141.77 1574.22 140.98 1576.24 141.181C1580.31 141.585 1580.91 143.705 1577.33 145.003C1572.4 146.792 1570 148.288 1570 149.575C1570 150.852 1581.43 158.989 1583.22 158.989C1583.77 158.989 1585.07 157.897 1586.12 156.561C1588.34 153.74 1594.7 151.293 1596.12 152.714C1597.6 154.189 1596.22 156.351 1592.77 157.989C1587.87 160.312 1588.24 161.762 1594.44 164.505C1600.78 167.308 1602.57 167.552 1603.28 165.709C1604.03 163.748 1610.53 160.595 1612.37 161.301C1614.92 162.28 1614.3 163.877 1610.5 166.122C1608.58 167.257 1607 168.553 1607 169C1607 169.448 1610.13 171.009 1613.95 172.469L1620.9 175.125L1623.92 172.89C1627.12 170.523 1632.34 169.933 1634.15 171.735C1635.66 173.247 1634.31 174.989 1631.63 174.989C1630.39 174.989 1628.51 175.628 1627.44 176.408C1625.53 177.806 1625.53 177.864 1627.68 180.158C1628.87 181.44 1630.15 183.688 1630.51 185.154C1630.93 186.821 1632.28 188.277 1634.13 189.045C1637.04 190.25 1640 194.45 1640 197.38C1640 200.447 1637.72 200.105 1634.83 196.605C1631.32 192.343 1629.82 192.095 1628 195.482C1627.27 196.854 1625.67 198.63 1624.45 199.429C1622.57 200.661 1622.31 201.541 1622.72 205.216C1623.35 210.764 1620.83 217.303 1618.27 216.785C1616.45 216.417 1616.43 216.11 1617.67 207.591C1618.21 203.864 1618.14 203.724 1615.87 204.397C1614.57 204.784 1610.8 205.357 1607.5 205.669C1601.69 206.22 1601.44 206.362 1599.63 210.185C1597.45 214.805 1591.82 218.206 1589.76 216.148C1588.8 215.187 1589.33 214.2 1592.27 211.509C1597.84 206.41 1597.36 204.22 1589.58 199.265L1583.17 195.174L1581.95 198.102C1580.21 202.303 1575.28 206.159 1572.11 205.792C1568.52 205.376 1568.84 203.571 1572.99 200.777C1576.42 198.465 1579.05 193.706 1577.67 192.321C1577.28 191.932 1574.22 191.415 1570.87 191.173C1565.28 190.769 1564.11 191.072 1556.64 194.866C1552.16 197.139 1547.18 200.058 1545.56 201.352L1542.62 203.704L1544.37 208.28C1545.33 210.797 1547.91 215.639 1550.11 219.039C1558.92 232.674 1570.59 241.987 1585.24 247.088C1592.64 249.662 1594.82 249.964 1606.15 249.976C1616.17 249.986 1620.21 249.554 1625.65 247.89C1637.67 244.21 1645.77 239.336 1654.5 230.54C1667.13 217.81 1672 205.835 1672 187.489C1672 170.65 1667.57 158.959 1656.86 147.516C1648.74 138.843 1637.88 132.699 1619.52 126.386C1611.02 123.463 1602.81 120.424 1601.28 119.633C1592.1 114.888 1592.33 105.323 1601.72 101.351C1606.98 99.1231 1613.09 99.6881 1621.15 103.15C1629.67 106.815 1638.03 107.355 1644.36 104.648C1647.98 103.103 1664 89.5951 1664 88.0941C1664 86.6161 1650.48 72.7051 1644.78 68.3201C1637.35 62.6051 1627.24 57.5751 1620.2 56.1001C1614.9 54.9881 1604.55 54.7181 1602.31 55.6331ZM21 153.042V249.095L69.25 248.782C116.721 248.474 117.606 248.432 124.042 246.156C141.339 240.042 154.788 225.58 160.808 206.619C163.419 198.393 163.091 180.304 160.17 171.489C156.285 159.764 149.856 150.415 144.017 147.996L141.025 146.757L143.513 144.8C149.836 139.826 155.008 126.008 154.985 114.15C154.935 87.9781 137.648 64.8211 113.458 58.5201C108.618 57.2591 99.936 56.9891 64.29 56.9891H21V153.042ZM565 152.989V248.989H586H607V152.989V56.9891H586H565V152.989ZM680 58.5781C672.868 61.6551 668.138 68.0461 644.372 106.714C623.112 141.306 618.524 147.89 614.7 149.297C614.008 149.552 615.242 151.258 617.618 153.329C620.498 155.839 629.219 169.038 646.61 197.204C660.291 219.361 673.063 239.247 674.992 241.395C681.26 248.375 683.684 248.942 707.357 248.967C724.772 248.985 728.126 248.759 727.68 247.597C726.167 243.655 669.661 153.288 667.977 152.118C666.045 150.776 666.061 150.684 668.752 147.61C670.263 145.884 681.61 127.96 693.967 107.78C706.324 87.6001 716.632 71.2881 716.874 71.5301C717.116 71.7721 733.417 111.687 753.097 160.23L788.879 248.489L807.189 248.749L825.5 249.008L835.5 223.818L845.5 198.627L846.208 204.058C846.615 207.176 850.313 217.792 854.894 228.989L862.872 248.489H881.086H899.299L938.027 152.989L976.755 57.4891L961.215 57.2131C941.886 56.8691 937.89 57.9351 930.532 65.3981C925.832 70.1651 924.782 72.2801 914.599 97.4951C881.035 180.61 881.114 180.425 880.198 177.896C879.719 176.572 876.737 168.485 873.571 159.924L867.816 144.36L885.251 100.924L902.687 57.4891L887.181 57.2131C875.221 57.0001 870.6 57.2931 866.978 58.4961C861.257 60.3961 854.579 65.9311 852.076 70.8461C848.853 77.1751 808 178.805 808 180.494C808 181.381 807.55 181.829 807 181.489C806.45 181.149 806 180.201 806 179.383C806 177.776 765.195 77.2521 762.002 70.9931C759.459 66.0091 752.888 60.4791 747.205 58.5431C740.603 56.2941 685.228 56.3221 680 58.5781ZM1165 152.929V248.989H1185.5H1206V219.989V190.989H1216.78H1227.57L1244.53 215.655C1262.47 241.736 1266.11 245.596 1275.03 247.996C1277.24 248.592 1287 248.917 1297.99 248.761L1317.09 248.489L1293.56 214.335L1270.03 180.181L1277.27 172.835C1285.5 164.469 1290 157.37 1293.74 146.824C1295.87 140.84 1296.43 137.187 1296.77 126.989C1297.29 111.675 1295.78 104.299 1289.5 91.3491C1282.23 76.3651 1271.14 66.2851 1255.12 60.0841L1248.5 57.5231L1206.75 57.1961L1165 56.8691V152.929ZM1322 152.929V248.989H1342.99H1363.98L1364.24 187.547L1364.5 126.105L1386.49 187.547L1408.48 248.989H1426.52H1444.56L1466.03 187.852L1487.5 126.716L1487.76 187.852L1488.02 248.989H1509.01H1530V152.929V56.8701L1503.25 57.1791C1478.11 57.4701 1476.26 57.6191 1472.49 59.6381C1467.82 62.1401 1463.39 66.3321 1461.44 70.1021C1459.86 73.1571 1428.45 169.843 1427.15 175.641L1426.29 179.489L1425.57 176.489C1425.17 174.839 1417.35 150.35 1408.19 122.07C1397.15 87.9801 1390.66 69.4441 1388.94 67.0701C1387.51 65.1001 1383.9 62.1391 1380.92 60.4891L1375.5 57.4891L1348.75 57.1791L1322 56.8701V152.929ZM1668 60.8041C1667.52 61.5871 1666.17 61.4711 1665.5 60.8041C1664.95 60.2541 1664.6 58.6351 1665 57.9891C1665.48 57.2061 1667.33 57.3221 1668 57.9891C1668.55 58.5391 1668.4 60.1581 1668 60.8041ZM277.295 101.998C288.761 105.54 300.08 114.612 305.814 124.855L308.128 128.989H303.524C298.665 128.989 292.206 131.662 288.151 135.352C284.568 138.611 280.89 146.658 280.28 152.569C278.853 166.393 289.887 180.989 301.764 180.989H306.136L303.846 184.239C297.35 193.456 285.522 201.699 274.632 204.599C250.166 211.113 223.692 194.273 215.612 167.057C213.78 160.884 213.503 146.857 215.079 140.017C218.973 123.119 234.405 106.73 251.447 101.392C257.789 99.4061 269.814 99.6881 277.295 101.998ZM473.331 104.249C482.91 108.797 492.447 117.598 496.946 126.04L500.117 131.989H497.519C494.469 131.989 487.497 135.308 484.151 138.352C482.859 139.527 480.683 142.688 479.315 145.376C472.693 158.387 476.861 173.634 489.123 181.256C494.814 184.794 494.702 185.323 486.721 192.606C466.792 210.79 439.344 210.327 420.496 191.49C407.034 178.035 401.098 157.806 405.518 140.449C410.139 122.303 422.853 108.194 439.977 102.209C445.367 100.325 448.151 99.9821 456.012 100.235C464.58 100.51 466.298 100.908 473.331 104.249ZM1068.23 102.405C1089.59 109.945 1103.44 130.092 1103.34 153.489C1103.24 177.053 1087.75 197.647 1065.07 204.377C1031.68 214.283 996.829 179.018 1004.4 142.989C1008.53 123.318 1022.16 107.568 1039.99 101.861C1048.2 99.2341 1059.88 99.4591 1068.23 102.405ZM108.238 103.962C111.271 106.348 114 111.807 114 115.489C114 119.604 111.011 125.011 107.58 127.103C104.828 128.781 102.288 128.982 83.75 128.985L63 128.989V115.489V101.989H84.365C104.118 101.989 105.92 102.138 108.238 103.962ZM1245.05 104.812C1249.7 107.761 1254.17 114.599 1255.47 120.722C1256.48 125.533 1253.56 134.366 1249.44 138.928C1243.58 145.407 1241.37 145.989 1222.6 145.989H1206V123.989V101.989H1223.3C1240.57 101.989 1240.62 101.995 1245.05 104.812ZM116.647 178.167C119.771 181.293 120.391 182.657 120.771 187.243C121.116 191.402 120.733 193.593 119.1 196.794C115.569 203.715 114.349 203.989 87.05 203.989H63V188.94V173.891L87.985 174.19L112.97 174.489L116.647 178.167Z" fill="#222222"/>
</svg>
