<svg width="489" height="238" viewBox="0 0 489 238" fill="none" xmlns="http://www.w3.org/2000/svg">
<path d="M235.11 63.6147V182.361C235.108 186.045 233.805 189.61 231.432 192.428C229.058 195.247 225.766 197.136 222.136 197.765C218.506 198.394 214.77 197.722 211.587 195.867C208.404 194.011 205.978 191.092 204.736 187.623L185.651 132.953M185.651 132.953C178.106 129.745 171.901 124.037 168.087 116.78C164.272 109.523 163.081 101.17 164.717 93.1358C166.352 85.1017 170.713 77.8792 177.061 72.6909C183.41 67.5025 191.355 64.6668 199.554 64.6636H215.839C252.284 64.6636 283.619 53.694 297.335 37.9951V162.448C283.619 146.749 252.293 135.78 215.839 135.78H199.554C194.777 135.784 190.049 134.816 185.651 132.953ZM297.335 126.89C304.407 126.89 311.19 124.08 316.191 119.079C321.192 114.078 324.002 107.295 324.002 100.222C324.002 93.1487 321.192 86.3655 316.191 81.3642C311.19 76.3629 304.407 73.5531 297.335 73.5531" stroke="#19535F" stroke-width="10" stroke-linecap="round" stroke-linejoin="round"/>
</svg>
