<svg width="489" height="238" viewBox="0 0 489 238" fill="none" xmlns="http://www.w3.org/2000/svg">
<g clip-path="url(#clip0_99_866)">
<path d="M223.167 151.75L279.824 119L223.167 86.2497V151.75ZM349.363 66.2722C350.783 71.403 351.765 78.2805 352.42 87.0138C353.184 95.7472 353.512 103.28 353.512 109.83L354.167 119C354.167 142.907 352.42 160.483 349.363 171.727C346.634 181.552 340.303 187.884 330.478 190.613C325.347 192.032 315.958 193.015 301.548 193.67C287.357 194.434 274.366 194.761 262.358 194.761L245 195.416C199.259 195.416 170.767 193.67 159.523 190.613C149.698 187.884 143.366 181.552 140.637 171.727C139.218 166.596 138.235 159.719 137.58 150.986C136.816 142.252 136.488 134.72 136.488 128.17L135.833 119C135.833 95.0922 137.58 77.5163 140.637 66.2722C143.366 56.4472 149.698 50.1155 159.523 47.3863C164.653 45.9672 174.042 44.9847 188.452 44.3297C202.643 43.5655 215.634 43.238 227.643 43.238L245 42.583C290.741 42.583 319.233 44.3297 330.478 47.3863C340.303 50.1155 346.634 56.4472 349.363 66.2722Z" fill="#19535F"/>
<mask id="mask0_99_866" style="mask-type:luminance" maskUnits="userSpaceOnUse" x="-32" y="-157" width="552" height="552">
<circle cx="244" cy="119" r="276" fill="url(#paint0_radial_99_866)"/>
</mask>
<g mask="url(#mask0_99_866)">
</g>
</g>
<defs>
<radialGradient id="paint0_radial_99_866" cx="0" cy="0" r="1" gradientUnits="userSpaceOnUse" gradientTransform="translate(244 119) rotate(90) scale(276)">
<stop offset="0.480769"/>
<stop offset="1" stop-color="#999999"/>
</radialGradient>
<clipPath id="clip0_99_866">
<rect width="489" height="238" fill="white"/>
</clipPath>
</defs>
</svg>
